<svg width="23" height="22" viewBox="0 0 23 22" fill="black" xmlns="http://www.w3.org/2000/svg">
<path d="M20.2913 2.74232C19.7805 2.18996 19.1741 1.75178 18.5066 1.45283C17.8392 1.15387 17.1238 1 16.4013 1C15.6788 1 14.9634 1.15387 14.2959 1.45283C13.6285 1.75178 13.022 2.18996 12.5113 2.74232L11.4513 3.88814L10.3913 2.74232C9.3596 1.6271 7.96032 1.00058 6.50129 1.00058C5.04226 1.00058 3.64298 1.6271 2.61129 2.74232C1.5796 3.85754 1 5.37011 1 6.94727C1 8.52443 1.5796 10.037 2.61129 11.1522L3.67129 12.298L11.4513 20.7079L19.2313 12.298L20.2913 11.1522C20.8023 10.6001 21.2076 9.94458 21.4842 9.22308C21.7608 8.50158 21.9031 7.72825 21.9031 6.94727C21.9031 6.16629 21.7608 5.39296 21.4842 4.67146C21.2076 3.94996 20.8023 3.29443 20.2913 2.74232Z" fill="black" stroke="#111111" stroke-width="2" stroke-linecap="round" stroke-linejoin="round"/>
</svg>
